# xmcd
#
# Track frame offsets: 
#        150
#        23565
#        50741
#        70740
#        95832
#        129301
#        152619
#        177123
#        197048
#        219446
#        233965
#
# Disc length: 3339 seconds
#
# Revision: 0
# Processed by: cddbd v1.5.2PL0 Copyright (c) Steve Scherf et al.
# Submitted via: ExactAudioCopy v1.0b4
#
DISCID=920d090b
DTITLE=Chris O'Leary - Gonna Die Tryin'
DYEAR=2015
DGENRE=Blues
TTITLE0=Can't Help Yourself
TTITLE1=19 Cents A Day
TTITLE2=Hook, Line And Sinker
TTITLE3=Gonna Die Tryin'
TTITLE4=Letters From Home
TTITLE5=The Devil Drove To Town In A V8 Ford
TTITLE6=The Machine
TTITLE7=Walking Contradiction
TTITLE8=Harvest Time
TTITLE9=One More Saturday Night
TTITLE10=Tell It To Me Straight
EXTD=
EXTT0=
EXTT1=
EXTT2=
EXTT3=
EXTT4=
EXTT5=
EXTT6=
EXTT7=
EXTT8=
EXTT9=
EXTT10=
PLAYORDER=
